<?xml version="1.0" encoding="utf-8"?>
<svg version="1.0" xmlns="http://www.w3.org/2000/svg" width="1272pt" height="114pt" viewBox="0 0 1272.000000 114.000000" preserveAspectRatio="xMidYMid meet">
  <g transform="matrix(0.1, 0, 0, -0.0986, 0, 80)" fill="#000000" stroke="none" style="">
    <path d="M2545 799 c-898 -41 -1837 -161 -2472 -315 l-73 -18 0 -233 0 -233 6360 0 6360 0 0 234 0 233 -57 -13 c-108 -26 -449 -93 -599 -118 -1048 -178 -2040 -225 -3169 -151 -764 51 -1377 126 -3100 380 -883 130 -1567 206 -2115 235 -221 11 -880 11 -1135 -1z" style="fill: rgb(21, 30, 61);"/>
  </g>
  <rect y="78" width="1272" height="40" style="fill: rgb(21, 30, 61);"/>
</svg>